<svg xmlns="http://www.w3.org/2000/svg" viewBox="0 0 890.2 800.08">
  <defs>
    <style>
      .cStroke-1{stroke:#0f0202;
      stroke-miterlimit:10;}
    </style>
  </defs>
  <g id="Layer_2" data-name="Layer 2">
    <g id="Layer_1-2" data-name="Layer 1">
      <polygon class="cStroke-1 fillable" fill="#fff"
               points="75.8 396.35 79.05 423.38 88.06 440.98 95.91 445.57 109.02 434.64 119.2 419.44 120.56 415.71 108.87 405.92 75.8 395.3 75.8 396.35"/>
      <path class="cls-2 fillable" fill="#fff"
            d="M127.73,419.44l-12.1-10.7C69.2,394.23,58.56,380.2,58.56,380.2s17.9-41.6,34.58-63.85c0,0-3.91-100.39,67.8-183.45L282,89.46l64.73,2.65L397.53,125a98.77,98.77,0,0,1,27.85,32.39c11.55,21.36,14.32,27.36,14.32,27.36s78.19-3.37,130.56,9.68c31,7.73,136.27,43.62,136.27,43.62L746,289.83l2.82,19.27s10.64,17.89,2.9,38.69l-15.19,40.68L439.89,511.12l-327-57.91L88.06,391.78l7.24-62.54-2.16-12.89"/>
      <path class="" fill="#0f0202"
            d="M129.49,417.67l-10.66-9.43c-2.28-2-4.68-2.58-7.64-3.56-5.07-1.67-10.1-3.47-15.07-5.44-11.15-4.42-22.88-9.6-32.19-17.35-.93-.77-1.82-1.58-2.68-2.43-.26-.26-1.4-1.66-.53-.52v2.52c3.55-8.24,7.42-16.36,11.44-24.39,3.61-7.23,7.39-14.38,11.44-21.38,2-3.36,4-6.68,6.06-9.94,1-1.54,2-3.08,3.08-4.59s2.62-3,2.9-4.81c.49-3.07,0-6.6.11-9.72a259.37,259.37,0,0,1,2.39-26.09,297.39,297.39,0,0,1,24.55-83.62,273.07,273.07,0,0,1,28.36-47.72q4.45-6,9.28-11.73c.22-.27,1.65-2.42,1.35-2.18.12-.1.34-.09.47-.17a29.52,29.52,0,0,1,5-1.79L274.6,94.77l6.48-2.32c.45-.16.91-.35,1.38-.49.67-.21-1.06,0,0,0,7.58.29,15.15.62,22.72.93l32.08,1.31a76.88,76.88,0,0,0,8.71.35c1.53-.11-.32.17-.36-.22,0,.33,1.94,1.26,2.2,1.43l46.82,30.37c19.73,12.8,30.33,35.06,40.63,55.34.77,1.52,1.55,3,2.26,4.57a2.42,2.42,0,0,0,2.16,1.23c13.7-.58,27.45-.5,41.16-.17,26.52.63,53.31,2.33,79.36,7.64,17.23,3.52,34,9.11,50.8,14.41,20,6.34,39.92,12.9,59.83,19.54q17.52,5.83,35,11.79l-1.5-1.15,38.33,50.31c.29.39.62.76.88,1.16.46.71-.15-.69,0-.06.59,2.49.76,5.17,1.13,7.7.61,4.16.56,9.07,2.43,12.87a47.11,47.11,0,0,1,4.73,24.12c-.46,6.19-2.66,11.82-4.8,17.56l-13,34.8,1.74-1.75-30.43,12.59-72.74,30.07-87.17,36-73.74,30.49-23.13,9.57c-.6.25-9.36,3.33-9.33,3.86,0-.44,1.85.38,1,0a5.54,5.54,0,0,0-1.35-.24l-5.87-1-22.3-3.95L335.9,490.17l-92.72-16.42-82.66-14.64-44.87-7.95-2.07-.36,1.75,1.74L92.18,395.31c-.5-1.21-.94-2.46-1.48-3.65-.47-1-.28.66-.06-.5.68-3.74.88-7.65,1.32-11.42L96.44,341c.44-3.78,1.32-7.76,1.34-11.57,0-4.48-1.48-9.33-2.23-13.75-.53-3.17-5.35-1.82-4.82,1.33l1.14,6.78.74,4.45c.11.63.1,2.2.19,1.06-.22,3-.71,6.06-1,9.07l-4.46,38.49-1.53,13.2a7.67,7.67,0,0,0,.75,4.48L99.24,426c3.69,9.12,7.08,18.44,11.1,27.42,1.2,2.7,3.82,2.5,6.44,3l42.16,7.47,71.3,12.62,82.06,14.54,73.38,13,46.45,8.23c2.33.41,4.73,1.06,7.08,1.25s4.75-1.4,6.81-2.25l42.45-17.56,69.22-28.62,76.59-31.67,65.63-27.14,35.29-14.59a19.12,19.12,0,0,0,1.93-.8c2.48-1.36,3.2-5.61,4.13-8.11q6.16-16.51,12.34-33a49.84,49.84,0,0,0,3-23.69c-.81-6.57-3.15-12-5.57-18,0-.11.12.74,0-.31s-.34-2.34-.51-3.49l-1.41-9.66c-.43-2.92-.44-5.2-2.21-7.52l-20.43-26.82c-5.85-7.68-11.39-15.8-17.64-23.16-1.17-1.38-2.5-1.67-4.17-2.23l-10.4-3.52q-19-6.41-38-12.7c-27.31-9-54.65-18.45-82.47-25.81-35.88-9.49-74.13-10.9-111.07-10.9-7.68,0-15.37.07-23,.39l2.16,1.24c-3.85-8.32-8.4-16.37-12.74-24.44-7.13-13.24-16.26-25.4-28.23-34.65-3.93-3-8.28-5.57-12.44-8.27L360.58,98.1l-10.22-6.63c-1.36-.89-2.37-1.71-4-1.88-7.51-.78-15.24-.62-22.78-.93l-32.32-1.32c-3.57-.15-7.68-1-11.12.15C265,92.62,250.05,98.28,235,103.68l-60.35,21.65c-4.64,1.66-9.43,3.12-14,5a6,6,0,0,0-2.32,1.72c-3.36,3.74-6.45,7.78-9.5,11.78a268.47,268.47,0,0,0-16.26,23.84,293.7,293.7,0,0,0-35.64,91c-3.79,17.79-6.29,36.11-6.36,54.33,0,.88.33,2.46,0,3.31.36-1-1.14.82-1.45,1.26q-1.71,2.42-3.33,4.89c-2.21,3.37-4.3,6.82-6.33,10.3-7.35,12.64-13.87,25.79-20,39.09-1.08,2.36-2.15,4.72-3.18,7.11a2.52,2.52,0,0,0,0,2.52c3.16,4.12,7.94,7.17,12.27,9.88a143.92,143.92,0,0,0,18.93,9.74q6.66,2.9,13.49,5.38,3.75,1.37,7.55,2.64c1.74.58,4.2,1,5.57,1.71,2.32,1.19,4.53,4,6.48,5.73l5.27,4.67c2.4,2.13,6-1.4,3.53-3.54Z"/>
      <path class="" fill="#0f0202"
            d="M394.42,126c.42.23.81.49,1.21.75s1,.68,1.46,1l.82.61c-.74-.54-.09-.06.07.07l.63.5a90.42,90.42,0,0,1,11.77,11.79,158.14,158.14,0,0,1,15.91,23.07c3.22,5.58,6.18,11.32,8.92,17.15,1.4,3,2.29,5.12,3.69,8.07A132.22,132.22,0,0,0,458.24,219a2.5,2.5,0,0,0,3.54-3.54A127.67,127.67,0,0,1,443.94,188c-.56-1.15-1.11-2.3-1.63-3.47-.13-.28-.25-.57-.37-.85s-.26-.6.17.42c-.28-.66-.57-1.31-.86-2-2.78-6.14-5.78-12.18-9.05-18.07a173.67,173.67,0,0,0-16.7-25,96.78,96.78,0,0,0-12.43-12.93,38.1,38.1,0,0,0-6.13-4.51c-2.82-1.54-5.35,2.78-2.52,4.32Z"/>
      <path class="cls-2 fillable" fill="#fff"
            d="M360.86,215.49c19.37,39.55-2.81,93.52-45,106.18s-89.39-19.2-102.06-61.38,5.63-78.66,47.81-91.32S343.38,179.82,360.86,215.49Z"/>
      <path class="" fill="#0f0202"
            d="M358.7,216.75c6.46,13.28,8.13,28.62,5.65,43a80.32,80.32,0,0,1-18.64,39.5,66.17,66.17,0,0,1-38.2,21.8c-15.61,2.71-31.88-.73-45.84-7.92a93.33,93.33,0,0,1-35.8-32.67,86.14,86.14,0,0,1-13.5-46.28c.09-14.33,4.58-28.59,13.69-39.72,9.95-12.18,24.18-20,39.27-24a76.52,76.52,0,0,1,49.78,3.79,87.49,87.49,0,0,1,37.45,31.73,96.11,96.11,0,0,1,6.14,10.7,2.52,2.52,0,0,0,3.42.9,2.55,2.55,0,0,0,.9-3.42,94.9,94.9,0,0,0-34.82-38.68,82.3,82.3,0,0,0-50.73-12.2c-17.3,1.63-34.61,8.49-47.68,20.06a66.29,66.29,0,0,0-21.44,39.17c-2.66,16.76.34,34.35,7.37,49.71A97.16,97.16,0,0,0,249,311.42C262.91,321,279.57,327,296.52,327a69.68,69.68,0,0,0,44.89-16.5,82.75,82.75,0,0,0,25.21-38.75c4.66-15,5.22-31.43.71-46.52a73.36,73.36,0,0,0-4.31-11,2.53,2.53,0,0,0-3.42-.9A2.56,2.56,0,0,0,358.7,216.75Z"/>
      <path class="cls-2 fillable" fill="#fff"
            d="M321.1,237.86c-4.49,7.41-13,12.53-21.67,12.53-14,0-24.36-11.44-25-25a21.47,21.47,0,0,1,2-9.93,45,45,0,1,0,44.66,22.37Z"/>
      <path class="" fill="#0f0202"
            d="M318.94,236.6c-4.8,7.78-14.21,12.66-23.37,11a22.8,22.8,0,0,1-17.2-15,21.53,21.53,0,0,1,.23-15.83c.66-1.49-.06-4-2.16-3.76a47.46,47.46,0,1,0,49.89,30.1,50,50,0,0,0-3.07-6.49c-1.58-2.81-5.9-.29-4.32,2.52A42.5,42.5,0,1,1,271.49,219a41.62,41.62,0,0,1,4.95-1l-2.16-3.76a26.3,26.3,0,0,0-1.36,17.59,29.2,29.2,0,0,0,7.13,12.81,26.81,26.81,0,0,0,28.54,6.57,29.61,29.61,0,0,0,14.67-12.08C325,236.37,320.63,233.86,318.94,236.6Z"/>
      <path class="cls-2 fillable" fill="#fff"
            d="M157.38,562.32a184.76,184.76,0,0,0,36.75,33.44c5.47,3.76,17.74,11.77,38.64,20.29,52.25,21.33,102.58,23.13,143.34,24.26,2.48.07,12.24.33,20.82.23,27.95-.31,175.9-2,270.27-105.51,13.38-14.68,47.15-52.56,63.3-111.32a249.27,249.27,0,0,0,5.69-26.1c18.38-15.48,15.48-49.82,15.48-49.82-6.29,18.38-29,36.28-29,36.28C611.89,456.62,435.83,460,435.83,460c-190.46,0-282.19-29.63-304.9-38.27-4-1.54-12.65-2.34-12.65-2.34-9.88,22.22-22.72,25.19-22.72,25.19-20.74-3-19.75-50.37-19.75-50.37l40.91,15.89s4.86,7,3.21,8.14-1.39,2.19-1.39,2.19l-20.8,26c17.62,56.51,44.91,97.23,59.64,115.92"/>
      <path class="" fill="#0f0202"
            d="M155.61,564.09a187.45,187.45,0,0,0,64.59,49.19c33.23,15.47,69.21,23.51,105.59,26.9,38.93,3.63,78.7,4.38,117.65.22,46.92-5,93.42-16.8,136-37.5a301.8,301.8,0,0,0,115.08-97.6,261.87,261.87,0,0,0,39.13-83.49q1.67-6.33,3-12.75c.34-1.64.66-3.29,1-4.93s.24-3.87.95-5.2c.57-1.06,2.12-2.07,2.94-3s1.65-2,2.41-3.05a43.86,43.86,0,0,0,4.72-8.5c4.15-9.65,5.68-20.39,5.73-30.85,0-1.91,0-3.83-.16-5.73a2.51,2.51,0,0,0-4.91-.66c-4.49,12.59-14.58,23.09-24.42,31.81-7.91,7-17.8,12-27.08,16.94-25.78,13.78-53.23,24.24-81.21,32.6-46.91,14-95.56,22.42-144.29,26.76-37.68,3.35-75.3,2.3-113.08.55-53-2.45-106.17-7.46-158.28-17.82a493.46,493.46,0,0,1-69.14-18.58,56.45,56.45,0,0,0-13.48-2.49,2.43,2.43,0,0,0-2.16,1.24c-3.74,8.25-8.8,16.74-16.59,21.77a24.06,24.06,0,0,1-4.22,2.15c-.78.31.67.38-.15-.08-1.23-.69-2.68-.85-3.93-1.68-5-3.37-7.53-9.82-9.17-15.39a95.39,95.39,0,0,1-3.34-19.57c-.29-3.7-.48-7.42-.41-11.12l-3.17,2.41,40.91,15.89-1.49-1.15c1,1.53,1.76,3.32,2.8,4.83.23.33.21.79.41,1.12.56-.91.57-1.08,0-.5a2.84,2.84,0,0,0-.78.84,4.11,4.11,0,0,0-.95,2.78l.73-1.77-12.91,16.11-7,8.67a10.31,10.31,0,0,0-1.33,1.69c-.69,1.48,0,2.85.51,4.33.76,2.38,1.54,4.76,2.35,7.12a385.47,385.47,0,0,0,38.32,80.6,313.34,313.34,0,0,0,18.85,26.9c2,2.53,5.51-1,3.54-3.54-19-24.2-34.27-51.67-46.24-80q-7.23-17.1-12.76-34.85l-.64,2.43,11.66-14.55,7.18-9c.56-.69,1.16-1.37,1.68-2.09a4,4,0,0,0,.27-.34c.28-.43.44-1.07.69-1.44s.6-.53.91-1c2.26-3.18-.75-7.58-2.59-10.3-1-1.52-2.27-1.93-3.9-2.56l-21-8.15-18-7c-1.56-.61-3.13.93-3.16,2.41a106.4,106.4,0,0,0,4.11,32.64c2,6.53,5.08,13.44,10.86,17.46,2.11,1.47,5.35,3.1,8,2.67a14.46,14.46,0,0,0,4.25-1.84c9.37-5.2,15.61-15,19.92-24.49l-2.16,1.24c10.37,1,19.88,5.24,29.78,8.25,13.48,4.1,27.17,7.49,40.95,10.45,49.36,10.63,99.82,16.1,150.17,19.13,41.37,2.49,83.09,4.44,124.48,1.22,47.08-3.65,94.09-11.14,139.68-23.51,28.23-7.66,56-17.3,82.43-29.91,13-6.19,26.47-12.85,38.14-21.3,7.49-5.43,14.23-12.74,19.9-20a63.79,63.79,0,0,0,10.27-17.8l-4.91-.67a81.44,81.44,0,0,1-.93,19.54,60.63,60.63,0,0,1-5,16.73,38.2,38.2,0,0,1-4.82,7.71c-1.88,2.28-4.43,3.7-4.93,6.71a253,253,0,0,1-33.29,88.86A291.66,291.66,0,0,1,593.8,589.72C551.47,613.49,504,627.41,456,633.89c-34.64,4.68-69.33,4.7-104.2,3.07-63.48-3-132.08-16.5-179.38-62.15a188.71,188.71,0,0,1-13.3-14.26c-2.08-2.46-5.6,1.09-3.54,3.54Z"/>
      <path class="cls-2 fillable" fill="#fff"
            d="M107.05,405.92l10.52-11.21V384.55s-5.81-84.64-16.45-83.67c0,0-2.9,2.9-8,15.47,0,0-27.81,44-34.58,63.85C58.56,380.2,74.76,394.89,107.05,405.92Z"/>
      <path class="" fill="#0f0202"
            d="M108.81,407.69l6.28-6.69,3.56-3.79c.23-.24.47-.48.68-.73a3.32,3.32,0,0,0,.74-2.37c0-4,.12-8.07-.19-12.09q-.63-8.32-1.44-16.65-1.22-12.6-2.89-25.16c-1.09-8-2.32-16.08-4.14-24a77.48,77.48,0,0,0-2.56-9.08,21.47,21.47,0,0,0-3.41-6.6c-1.34-1.61-4.26-3.24-6.1-1.41s-3,4.38-4.14,6.57c-.66,1.3-1.29,2.61-1.89,3.94-.83,1.83-1.47,3.81-2.39,5.59.15-.29,0,0-.08.08l-.4.65c-1.33,2.12-2.63,4.24-3.93,6.36-4.93,8.05-9.74,16.18-14.36,24.41a274.77,274.77,0,0,0-13.87,27.33c-.77,1.8-1.49,3.62-2.13,5.47a2.48,2.48,0,0,0,.64,2.44,76.38,76.38,0,0,0,7.88,6A153.78,153.78,0,0,0,87.12,400.6a197.37,197.37,0,0,0,19.26,7.73,2.53,2.53,0,0,0,3.08-1.74,2.56,2.56,0,0,0-1.75-3.08,180.06,180.06,0,0,1-29.95-13.3c-3.26-1.84-6.45-3.79-9.56-5.88-1.15-.78-2.3-1.58-3.43-2.4l-1.35-1c-.2-.15-.39-.31-.59-.45l.17.13-.36-.28c-.78-.62-1.57-1.24-2.31-1.91l.64,2.43a134.13,134.13,0,0,1,8-17.68c3.57-6.95,7.39-13.79,11.3-20.56q5-8.65,10.2-17.17c1.59-2.59,3.39-5.13,4.83-7.8,1.08-2,1.78-4.28,2.74-6.34.87-1.88,1.79-3.73,2.81-5.53.56-1,1.15-1.89,1.78-2.81.26-.37.31-.19-.07.08.08-.05.11-.18.2-.23s.1-.13.15-.18l-1.77.74c.21,0,.61.08.11,0s0,0,.15.08c-.46-.21-.54-.27-.14,0a1,1,0,0,0,.21.14c.19.05-.45-.45-.24-.18a5.08,5.08,0,0,0,.41.39c.11.12.54.67.23.26s.12.19.21.31.28.46.42.69c.27.47.51,1,.74,1.45.12.25.45,1.09.18.39.12.31.25.61.37.92.53,1.39,1,2.81,1.4,4.24a181.24,181.24,0,0,1,4.74,23.78c.69,4.65,1.18,8.34,1.75,13.09q.78,6.51,1.44,13,1,9.51,1.7,19.06c.32,4.13.27,8.23.27,12.38v1.36l.73-1.77-10.52,11.21C103.08,406.5,106.61,410,108.81,407.69Z"/>
      <path class="cls-2 fillable" fill="#fff" d="M80.81,397.61s4.89,35.55,15.09,39.18c0,0,3.29-2.42,16.83-19.59h9.19l-8.32-9.11Z"/>
      <path class="" fill="#0f0202"
            d="M78.4,398.28a130.4,130.4,0,0,0,6,25.73c1.77,5,4,10.77,8.47,14,1.18.86,2.85,1.78,4.26,1a5.13,5.13,0,0,0,.69-.54c.64-.55,1.23-1.17,1.82-1.78C105,431.09,109.75,425,114.5,419l-1.77.73h9.19a2.53,2.53,0,0,0,1.77-4.27l-7-7.61a6.66,6.66,0,0,0-2.58-2.17c-.76-.27-1.55-.5-2.32-.74l-23.2-7.42-7.17-2.29c-3.07-1-4.38,3.84-1.32,4.82l28.65,9.16,4.14,1.32-1.1-.64,8.31,9.11,1.77-4.27h-6.73c-.82,0-1.65-.05-2.46,0-1.66.1-2.47,1.62-3.4,2.8s-1.73,2.16-2.6,3.23a163.76,163.76,0,0,1-11.31,13.09c-.32.32-.65.63-1,.94s-.72.55.2-.13l1.93-.25c-.49-.18.49.31.05,0l-.34-.17c-.23-.13-.44-.28-.66-.41s-.43-.36,0,.05l-.38-.33c-.24-.21-.46-.43-.68-.66s-.45-.51-.67-.76c-.07-.09-.28-.37,0,.05l-.35-.48c-.44-.62-.85-1.27-1.23-1.93a44.05,44.05,0,0,1-3.82-9,140,140,0,0,1-4.67-19.47c-.25-1.43-.49-2.86-.69-4.3s-1.9-2.07-3.07-1.75A2.56,2.56,0,0,0,78.4,398.28Z"/>
      <path class="cls-2 fillable" fill="#fff"
            d="M748.77,309.1l-2.91-6.77s-6.67,5.42-14.59-19.37a40.63,40.63,0,0,0-6.16-12l0-.05c-32.41-42.08-80.78-39.66-80.78-39.66s-69.65-3.87-76.9-17.42c0,0,7.25-78.84,54.17-70.13,0,0,16.93,0,27.09,17.9,0,0,77.38-55.14,93.34,55.62,0,0,25.16,5.8,28.54,40.63C770.53,257.83,777.79,298.46,748.77,309.1Z"/>
      <path class="" fill="#0f0202"
            d="M750.92,307.84l-2.9-6.78c-.7-1.63-2.83-1.38-3.92-.5.7-.56.61-.46.37-.3-.47.31-.2-.12.17,0a2,2,0,0,0-.54.14c-.35.16.78,0,.25,0a2.57,2.57,0,0,0-.48,0c-.45.05.71.21.12,0a4.84,4.84,0,0,0-.51-.14c-.52-.11.54.32,0,0-.22-.14-.46-.24-.68-.39s-.2-.15-.31-.21c-.42-.2.44.41.08.07s-.44-.38-.66-.58a14.18,14.18,0,0,1-1.41-1.59c.37.48-.06-.09-.11-.16l-.38-.54q-.4-.6-.78-1.23c-.64-1.06-1.22-2.17-1.76-3.29a71.28,71.28,0,0,1-3.39-8.59,54.12,54.12,0,0,0-4.22-10,56,56,0,0,0-5.89-8.08,104.31,104.31,0,0,0-53.43-33.47,106.92,106.92,0,0,0-19.77-3.26c-2.23-.16-4.44-.11-6.66-.17-3.72-.1-7.45-.51-11.15-.83-3.42-.3-6.84-.63-10.25-1q-2.91-.31-5.81-.66l-3-.38-2.78-.38A213,213,0,0,1,587,220.91a80.05,80.05,0,0,1-10-3.22c-.61-.25.48.21-.1,0l-.51-.23-.82-.37c-.67-.32-1.33-.65-2-1s-1.07-.63-1.58-1c-.2-.13-.39-.28-.59-.42-.43-.29.45.38.06.05l-.41-.35c-.38-.33-.71-.71-1.06-1.07s.28.5-.1-.14c-.11-.19-.24-.37-.34-.57l.34,1.26c0-.28.06-.57.09-.86s.07-.66.12-1,0-.41.07-.61.16-1.1,0-.21c.43-2.84.85-5.67,1.4-8.49a139.31,139.31,0,0,1,7.24-25.39c.56-1.42.66-1.64,1.28-3,.49-1.11,1-2.21,1.54-3.3,1.09-2.2,2.27-4.35,3.56-6.44.64-1,1.32-2.08,2-3.08.33-.48.67-.94,1-1.4.07-.1.58-.76.26-.35l.66-.84a47,47,0,0,1,4.83-5.15c.41-.37.83-.74,1.26-1.09.21-.18.42-.36.64-.53l.33-.26c.23-.18-.32.24.06-.05,1-.69,1.91-1.35,2.91-2a32.76,32.76,0,0,1,3.09-1.66l.75-.34c.1,0,.45-.18,0,0l.39-.16c.58-.22,1.17-.44,1.77-.64a33.18,33.18,0,0,1,3.39-.9c.57-.12,1.14-.21,1.72-.3s-.19,0,.43-.06l1-.1a36.64,36.64,0,0,1,3.92-.09c.64,0,1.28.06,1.92.11l1,.1.49,0c.82.1-.48-.07.34.05,1.23.18,2.43.31,3.67.44l.46.06c-.06,0-.6-.1,0,0s.9.15,1.35.24a31,31,0,0,1,3,.76,28.54,28.54,0,0,1,7.34,3.38,32.58,32.58,0,0,1,7.83,7,37.07,37.07,0,0,1,3.46,5.12,2.52,2.52,0,0,0,3.42.9,67.93,67.93,0,0,1,7.69-4.6c1.29-.68,2.59-1.33,3.91-1.95l2.24-1,.59-.25c.58-.26-.45.18,0,0l1.22-.5A78.73,78.73,0,0,1,676.2,152q2.88-.69,5.8-1.13l.25,0,.77-.1,1.54-.16c1-.09,2-.15,3-.18a46.72,46.72,0,0,1,6.26.2c.25,0,1.74.21.93.1.53.07,1.06.15,1.59.25,1.08.18,2.14.41,3.19.68s2.08.58,3.1.93l1.5.55.79.32c-.6-.25.13.06.34.15a40.64,40.64,0,0,1,6,3.34c.51.35,1,.7,1.51,1.07l.49.37c-.31-.25.18.14.2.15l.44.36c1,.8,1.93,1.65,2.85,2.54s1.88,1.9,2.76,2.9c.45.51.89,1,1.31,1.56.21.25.42.51.62.77.45.57-.29-.4.15.19l.4.54c9.24,12.49,13.55,27.82,16.31,43,.46,2.5.86,5,1.22,7.51a2.44,2.44,0,0,0,1.75,1.75,20.5,20.5,0,0,1,2.83,1c.71.28-.33-.16.17.07l.79.35c.54.26,1.07.52,1.6.8a38.39,38.39,0,0,1,3.79,2.32l1,.71c.08.05.53.39.28.21l.45.35c.69.56,1.37,1.15,2,1.75a41.1,41.1,0,0,1,4.2,4.55l.21.27.52.71c.36.49.7,1,1,1.49.65,1,1.25,2,1.82,3a43.62,43.62,0,0,1,3.13,7.12,80.8,80.8,0,0,1,3,14.43c0,.22.07.45.1.67.09.62,0-.17,0-.11s0,.42.08.63c.13,1.12.23,2.23.31,3.35a75.45,75.45,0,0,1,.07,9.86c-.06.95-.13,1.89-.23,2.83-.05.49-.1,1-.16,1.46,0,.11,0,.23,0,.34,0,.4.05-.38,0,0s-.07.53-.11.8a56.59,56.59,0,0,1-1.34,6.28,35.62,35.62,0,0,1-5.27,11.53,21.75,21.75,0,0,1-1.89,2.4,29.37,29.37,0,0,1-2.49,2.5,27,27,0,0,1-5.71,3.9,27.48,27.48,0,0,1-3.36,1.5,2.56,2.56,0,0,0-1.74,3.07,2.52,2.52,0,0,0,3.07,1.75,34.16,34.16,0,0,0,13.42-8.8,38.65,38.65,0,0,0,7.51-12.57c2.9-7.71,3.74-16.21,3.42-24.39a75.34,75.34,0,0,0-.67-7.51c-.05-.36-.12-.72-.17-1.07.08.61,0-.37,0-.54,0-.46-.1-.92-.17-1.38-.13-1-.26-2-.43-2.95-.28-1.67-.62-3.33-1-5-2.47-9.78-7.58-19.09-15.51-25.49a39.52,39.52,0,0,0-8.11-5.16,22.1,22.1,0,0,0-4.77-1.84l-.21-.05,1.75,1.75c-2.42-16.65-6.5-33.95-15.68-48.28-5.87-9.18-14-16.76-24.42-20.43-8.35-3-17.42-3-26-1.39a81.57,81.57,0,0,0-21.06,7.3c-2.24,1.11-4.44,2.3-6.58,3.6a25.83,25.83,0,0,0-3.1,2,.71.71,0,0,1-.14.1l3.42.9a38.2,38.2,0,0,0-20.37-17.39,33.14,33.14,0,0,0-7.43-1.65c-.46-.05-.92-.08-1.38-.1-.2,0,0,0,.35,0-.42-.09-.84-.14-1.26-.2-1.05-.16-2.09-.29-3.14-.38a34.93,34.93,0,0,0-18.72,3.61,41.72,41.72,0,0,0-13.6,11.53c-7.64,9.67-12.32,21.41-15.59,33.2A154.73,154.73,0,0,0,565,212.74a3.54,3.54,0,0,0,.34,2.53A13.33,13.33,0,0,0,570,219.7c4.76,3.05,10.51,4.7,15.93,6.09,13.63,3.51,27.75,5.23,41.73,6.6,5.84.57,11.82,1.37,17.7,1.31a83,83,0,0,1,10.57.67l.93.12c.62.08-.4-.06,0,0l.48.07c.74.1,1.48.22,2.21.34,1.53.25,3,.53,4.56.85q5.16,1.08,10.21,2.67a99.23,99.23,0,0,1,45.55,30c3.74,4.36,6.88,8.85,8.82,14.61,1.69,5,3.38,10.07,6.05,14.65,2.11,3.63,5.81,8.55,10.68,7.54a5.05,5.05,0,0,0,2.25-1.1l-3.92-.5,2.9,6.77a2.52,2.52,0,0,0,3.42.9A2.56,2.56,0,0,0,750.92,307.84Z"/>
      <path class="cls-2 fillable" fill="#fff"
            d="M174.82,154.69l1.76,1.57a30.93,30.93,0,0,0,4.83.16c36.32-1.13,56.68-32.42,88-44.64,30.4-11.85,65-10.26,95.23,1.26,2.11.81,4.18.87,6.33,1.59l24.66,9.22s.49-63.84-40.14-80.77c0,0-14.51-6.78-27.57,0,0,0-17.9-47.89-62.88-39.67,0,0-41.11,5.33-47.88,57.56,0,0-55.26-.41-55,65.77A37.54,37.54,0,0,0,174.82,154.69Z"/>
      <path class="" fill="#0f0202"
            d="M173.05,156.46c.82.73,1.8,1.91,2.88,2.21a17.34,17.34,0,0,0,4.55.27,65.5,65.5,0,0,0,13.15-1.54,80.53,80.53,0,0,0,22.53-9c14-8,26.06-18.77,39.82-27.07,16.28-9.82,35.14-14.55,54.08-15.14a135.45,135.45,0,0,1,30.6,2.55,146,146,0,0,1,15,3.83q3.69,1.16,7.32,2.51c2.41.89,4.95,1.14,7.36,2,8,2.76,15.92,5.95,23.87,8.92l.8.3a2.52,2.52,0,0,0,3.16-2.41c0-3.18-.21-6.38-.49-9.55a146.39,146.39,0,0,0-3.81-22.78A99,99,0,0,0,383.29,65c-5.15-8.63-12.13-16.26-20.88-21.31-1.14-.66-2.31-1.27-3.51-1.84-.56-.26-1.13-.52-1.7-.76-.27-.12-1.08-.46-.41-.18l-.13,0A39.82,39.82,0,0,0,352,39.18a36.64,36.64,0,0,0-19.65-.5,30.22,30.22,0,0,0-5.68,2.24l3.67,1.49a72.57,72.57,0,0,0-9.19-16.6C313.61,15.29,303.47,6.48,291,2.41A53.39,53.39,0,0,0,267.13.57c-.57.08-1.13.16-1.68.26-.18,0-1.17.23-.36.09l-.77.1-.6.1c-.92.17-1.83.38-2.73.61a59.22,59.22,0,0,0-23.44,12.52c-11.64,10.05-18.62,24.37-21.64,39.27-.49,2.47-.88,5-1.2,7.45l2.5-2.5a46.22,46.22,0,0,0-8,.82,62.91,62.91,0,0,0-17.16,5.56,54.05,54.05,0,0,0-18.57,15,64.61,64.61,0,0,0-12.4,29.34c-1.18,7-1.93,14.44-1.16,21.49a40.79,40.79,0,0,0,9,21.55,38.92,38.92,0,0,0,4.08,4.24c2.39,2.15,5.94-1.38,3.54-3.54a35.48,35.48,0,0,1-11-18.49c-1.56-6.74-1-14.07-.14-20.88,1.3-10.4,4.5-20.25,10.54-28.77l.88-1.2.27-.36s-.22.29,0,.06l.55-.69c.67-.83,1.36-1.62,2.08-2.4a50.81,50.81,0,0,1,4.36-4.2c.36-.31.72-.61,1.09-.9.15-.13.31-.25.47-.37.36-.29,0,0,0,0l.31-.24c.76-.56,1.52-1.11,2.3-1.64a51.5,51.5,0,0,1,4.62-2.79c1.47-.79,3-1.5,4.5-2.16.41-.18-.45.17.1,0l.54-.22,1.15-.44c.72-.27,1.44-.53,2.17-.78a62,62,0,0,1,7.79-2c1.07-.21,2.14-.38,3.22-.54l-.22,0,.29,0,.73-.09,1.16-.11c.93-.08,1.85-.1,2.78-.16h.13a2.57,2.57,0,0,0,2.5-2.5,79.06,79.06,0,0,1,7.13-24.57,57.49,57.49,0,0,1,11.32-15.9c1-1,2.08-2,3.18-2.93.49-.42,1-.84,1.51-1.24l.42-.34c.33-.25-.46.35.09-.06.27-.21.55-.42.84-.62a56.24,56.24,0,0,1,6.32-4c1-.53,1.94-1,2.94-1.51l1.41-.64.57-.25c.49-.22-.43.17-.1,0l.49-.2c1.55-.63,3.13-1.2,4.73-1.68s3.37-.86,5.09-1.21c.24,0,.62-.08-.56.08,1-.14,2-.34,3-.48a52,52,0,0,1,6-.46,45.13,45.13,0,0,1,10.79,1,46.53,46.53,0,0,1,17.79,8,57.13,57.13,0,0,1,6.64,5.63,69.66,69.66,0,0,1,5.75,6.4l.33.41.57.75q.62.81,1.2,1.65c.71,1,1.4,2,2.06,3,1.17,1.81,2.26,3.66,3.29,5.56.74,1.38,1.45,2.79,2.11,4.22.23.49.44,1,.66,1.47s-.25-.63,0,0c.06.14.12.27.17.41s.09.21.13.32a2.55,2.55,0,0,0,3.67,1.5c5.88-3,12.72-3.26,19.07-1.85A38.31,38.31,0,0,1,354,45.1l.39.16c.37.13-.57-.26-.28-.12l.22.1c1,.42,2.25,1,3.38,1.56a52.45,52.45,0,0,1,20.26,19A88.3,88.3,0,0,1,388.5,90.71q1.62,6,2.68,12.1.46,2.72.84,5.45c-.08-.61.07.53.1.78.05.43.11.87.16,1.3.09.77.17,1.54.25,2.3.25,2.49.44,5,.55,7.46.06,1.19,0,2.42.1,3.6a.75.75,0,0,1,0,.15l3.17-2.41-23.42-8.76c-2.32-.86-4.79-1.11-7.13-1.88-4.77-1.59-9.45-3.35-14.32-4.67a145,145,0,0,0-29.92-4.81c-19.66-1.08-40.07,2-58,10.28-14.37,6.65-26.52,17-39.49,25.87s-27.12,16.14-43.12,16.46c-1,0-2,0-3-.05-.31,0-2-.22-.72,0l1.11.64-1.76-1.57C174.19,150.79,170.64,154.32,173.05,156.46Z"/>
      <path class="cls-2 fillable" fill="#fff"
            d="M686.08,624.69c-10.55,54.72-79.85,88.61-137.41,84.8s-129-47.11-129-112.32c-.07-64.45,69.51-110.77,129-112.33,59-1.55,98,41.2,103.53,47.5C660.94,542.26,694.62,580.44,686.08,624.69Z"/>
      <path class="" fill="#0f0202"
            d="M683.67,624a80.7,80.7,0,0,1-15,33,110.31,110.31,0,0,1-27.8,25.49A149,149,0,0,1,605,699.58a155.82,155.82,0,0,1-39.2,7.46,138.29,138.29,0,0,1-37.15-2.91,163.56,163.56,0,0,1-35.93-12.26,153,153,0,0,1-32.54-20.68,116.78,116.78,0,0,1-24.84-28.36,89.12,89.12,0,0,1-12.46-34.58A86.82,86.82,0,0,1,426.48,570a100.08,100.08,0,0,1,18.59-32.86,132.55,132.55,0,0,1,29.31-25.74,152.38,152.38,0,0,1,35.55-17.08,136.6,136.6,0,0,1,37.4-6.94,119.21,119.21,0,0,1,43,6.41A138.5,138.5,0,0,1,623,510.29a149.88,149.88,0,0,1,20.67,16.78c3.62,3.51,7,7.25,10.26,11.09a157.65,157.65,0,0,1,17.62,25.22c6.62,11.91,11.57,25,13,38.67a76.34,76.34,0,0,1-.87,22,2.57,2.57,0,0,0,1.75,3.08,2.52,2.52,0,0,0,3.07-1.75c2.89-15.19,1.19-30.76-3.91-45.3a134.59,134.59,0,0,0-18.26-34.16,188.53,188.53,0,0,0-13.63-16.74,145.5,145.5,0,0,0-14.91-14,154.64,154.64,0,0,0-28.37-18.63,130.28,130.28,0,0,0-39.84-12.85,128.46,128.46,0,0,0-42.76,1.15,154.39,154.39,0,0,0-38.37,12.92,150.21,150.21,0,0,0-34,22.66,119.49,119.49,0,0,0-25.13,30.87,95.66,95.66,0,0,0-11.83,37.89,90,90,0,0,0,5.22,39.15,105.81,105.81,0,0,0,20.17,33.12,140.56,140.56,0,0,0,30.34,25.47A169.59,169.59,0,0,0,509.34,704a156.58,156.58,0,0,0,37.42,7.86,149.39,149.39,0,0,0,40.42-2.51,163.66,163.66,0,0,0,39.5-13.1,135.73,135.73,0,0,0,33.52-22.52A96.25,96.25,0,0,0,682.83,643a80.84,80.84,0,0,0,5.66-17.64,2.55,2.55,0,0,0-1.74-3.07A2.52,2.52,0,0,0,683.67,624Z"/>
      <path class="cls-2 fillable" fill="#fff"
            d="M43.72,601.18c32.71-39.53,82.2-55,113-33.11,32.86,23.38,33.17,79.35.69,125S72,756.79,39.1,733.41C7.28,710.77,6,656.6,35.4,611.81"/>
      <path class="" fill="#0f0202"
            d="M45.49,602.94C57.6,588.36,72.66,576.09,90,568.3c14.33-6.44,30.86-9.74,46.18-6.46a51.72,51.72,0,0,1,34.33,25.36c8.17,14.46,9.81,31.86,7.74,48.16-2.5,19.65-10.59,38.46-21.78,54.69a128.76,128.76,0,0,1-40.38,38.16c-13.59,8-29.13,13.23-44.86,12.91C56.94,740.83,43,735.45,33,724.78,22.09,713.17,17.3,697,16.8,681.27c-.61-19,4.46-37.93,13-54.78a138.87,138.87,0,0,1,7.78-13.42c1.77-2.7-2.56-5.21-4.32-2.53-11.34,17.32-19,37.22-21,57.88-1.68,17.28.85,35.7,10.15,50.64a57,57,0,0,0,37.3,25.82c16,3.16,32.51,0,47.32-6.43,17.17-7.44,32.3-19.48,44.42-33.66,13.66-16,24.08-35,29.23-55.42,4.41-17.51,5.11-36.66-.94-53.88-5.35-15.25-16.21-28.43-31.22-34.93-15.16-6.56-32.25-6.1-47.9-1.48-18.24,5.38-34.76,16-48.35,29.21A136.85,136.85,0,0,0,42,599.41a2.56,2.56,0,0,0,0,3.53,2.5,2.5,0,0,0,3.53,0Z"/>
      <path class="cls-2 fillable" fill="#fff"
            d="M165.79,562.29c7.58,5.1,38,26.81,47.35,67.66,9.2,40.15-6.11,80.61-33.56,106.26-2.83,2.64-44.16,40-97.4,28.51a103.72,103.72,0,0,1-41.46-19.57"/>
      <path class="" fill="#0f0202"
            d="M164.53,564.45c.84.57,1.68,1.15,2.51,1.74l1.6,1.16.84.63.59.45c3,2.37,6,4.87,8.76,7.52a113.93,113.93,0,0,1,19.9,24.71,103.88,103.88,0,0,1,10.79,81.14,113.64,113.64,0,0,1-18.39,37.76,99.63,99.63,0,0,1-16.77,17.86q-.75.62-1.5,1.2l-.36.29c-.08.06-.57.44-.25.2s-.14.1-.21.15l-.54.42c-1.38,1-2.78,2.06-4.21,3-3.55,2.47-7.23,4.76-11,6.88a118.89,118.89,0,0,1-30.71,12.1,97,97,0,0,1-39.67,1.22,100.38,100.38,0,0,1-38-15.62c-1-.69-2-1.39-3-2.11l-1.37-1-.61-.46-.45-.34a2.58,2.58,0,0,0-3.54,0,2.51,2.51,0,0,0,0,3.53,108.64,108.64,0,0,0,33.74,17.88,101.11,101.11,0,0,0,44,3.63,117.76,117.76,0,0,0,35-10.81,131.85,131.85,0,0,0,22.45-13.72,100.73,100.73,0,0,0,14.44-13.34,119.36,119.36,0,0,0,22.4-37.1A112.71,112.71,0,0,0,218.25,650a109,109,0,0,0-10.56-43.13,115.63,115.63,0,0,0-20.25-29.36,121.93,121.93,0,0,0-17.88-15.62c-.83-.59-1.66-1.17-2.51-1.74-2.68-1.8-5.18,2.53-2.52,4.32Z"/>
      <path class="cls-2 fillable" fill="#fff"
            d="M34.19,592.84c36-43.29,91.41-59.55,126.52-34.57,37.44,26.64,38.9,88.86,3.24,139S69,766.39,31.59,739.75C-4.66,714-7.19,653.71,25,604.49Z"/>
      <path class="" fill="#0f0202"
            d="M36,594.61c14-16.74,31.77-30.76,52.17-38.77,17.34-6.82,36.78-9.41,54.68-3.73,17.24,5.47,30.83,18.72,38,35.34,7.84,18.25,8,39.31,3.72,58.5-5.06,22.6-16.29,43.74-31.47,61.16-13.64,15.63-30.8,28.69-50.31,36-16.71,6.29-35.14,8.42-52.25,3.15a60.68,60.68,0,0,1-22-12.22,64.64,64.64,0,0,1-16.08-21.84C4,694.11,3.4,672.9,7.3,653.55a133.28,133.28,0,0,1,11.12-32.46q2-4,4.22-7.91c.68-1.2,1.38-2.38,2.1-3.56l1.32-2.11.45-.71s.67-1.11.3-.56c1.43-2.13,3.22-4.09,4.8-6.1L36,594.61a2.58,2.58,0,0,0,0-3.54,2.5,2.5,0,0,0-3.53,0l-4.82,6.12c-1.65,2.11-3.46,4.17-5,6.39a135.89,135.89,0,0,0-16,33.17c-6.85,20.57-9,43.37-3.43,64.51,5,18.76,16.58,35.53,33.87,44.82,16.35,8.78,35.53,10,53.42,6,20.53-4.6,39.33-15.68,54.76-29.79a149.38,149.38,0,0,0,39.56-59.43c7.33-20.45,10-43.22,4.81-64.51-4.56-18.76-15.79-35.79-32.75-45.48s-37.07-10.7-55.68-6.33c-21.42,5-41,16.89-56.89,31.93a146,146,0,0,0-11.85,12.64,2.56,2.56,0,0,0,0,3.54A2.51,2.51,0,0,0,36,594.61Z"/>
      <path class="cls-2 fillable" fill="#fff"
            d="M115.06,585.85c3.69-1.3,26.54,13.13,26.41,17L139,675.2a5.58,5.58,0,0,1-3.84,5.09l-71,23.14c-3.75,1.22-26.69-13.1-26.4-17"/>
      <path class="" fill="#0f0202"
            d="M115.73,588.26c.29-.09.18.07,0,0-.73-.3.09.18,0,0s1.19.34-.12,0l.51.1a16,16,0,0,1,2.25.74c.19.08.66.28.22.09l.66.29,1.61.77c1.06.53,2.1,1.1,3.14,1.68,2.28,1.28,4.5,2.67,6.66,4.14a52.81,52.81,0,0,1,5.44,4.08,24,24,0,0,1,2.07,2l.37.41c.22.25.27.38,0,0,.17.24.32.58.52.81s-.2-.54-.11-.24.05-.43,0-.27a.57.57,0,0,0,0,.13c0,.14,0,.29,0,.44-.06,2-.14,4-.21,6l-.85,24.92-1,27.7c-.15,4.37,0,8.83-.45,13.18-.22,2.27-2.1,2.71-3.88,3.29L125,681l-25.24,8.22-25.63,8.36L66,700.22l-2,.65c-.13,0-.27.07-.39.13s-.13,0-.15,0,.74-.2.28,0c-.12,0-.28,0-.4,0,.31-.05.56.11.13,0l-.46-.1c-.41-.1-.8-.23-1.2-.37s-.8-.3-1.2-.46.34.16-.23-.1l-.78-.35a71.87,71.87,0,0,1-6.42-3.45c-2.25-1.34-4.44-2.76-6.57-4.28l-1.51-1.11c-.43-.33-.46-.35-1.06-.85-.78-.63-1.53-1.28-2.25-2q-.43-.42-.84-.87c-.14-.15-.27-.31-.4-.47.25.29.22.33,0,0s-.47-.87-.3-.44,0,.06,0-.06c-.08-.36,0,.77.05.28.11-3.22-4.89-3.22-5,0-.07,1.76,1.23,3.32,2.37,4.52a39.42,39.42,0,0,0,5.27,4.47,84,84,0,0,0,13.4,8.21c2.51,1.22,5.82,3,8.7,2.19,1.68-.47,3.34-1.09,5-1.63l23.57-7.69,27.66-9c4.82-1.58,9.69-3.05,14.47-4.72,3.79-1.32,5.65-4.48,5.78-8.33l.24-6.88.92-26.61,1-27.69.29-8.4c.06-1.71.16-3.15-.89-4.68a21.68,21.68,0,0,0-4.2-4.25,79.47,79.47,0,0,0-6.5-4.75,65.14,65.14,0,0,0-13.2-7.11c-1.44-.53-3.19-1.07-4.71-.59-3.06,1-1.75,5.79,1.33,4.82Z"/>
      <path class="cls-2 fillable" fill="#fff"
            d="M885.21,490.3c14,59-32.23,123.43-103.14,140.2s-155.46-12.64-169.42-71.64,48-125.25,118.89-142S871.26,431.3,885.21,490.3Z"/>
      <path class="" fill="#0f0202"
            d="M882.8,491a92.14,92.14,0,0,1,1.45,34.27,107.47,107.47,0,0,1-10.78,33.29A126.08,126.08,0,0,1,852,588.39a139.81,139.81,0,0,1-30.39,23.74,147.52,147.52,0,0,1-37.78,15.37,171.91,171.91,0,0,1-39.43,5.14,181.26,181.26,0,0,1-38.88-3.47,160.34,160.34,0,0,1-35.81-11.49,119.72,119.72,0,0,1-29.3-18.8,84.5,84.5,0,0,1-20-25.69,71.42,71.42,0,0,1-7.25-31.86,87.86,87.86,0,0,1,7.4-33.92,127.81,127.81,0,0,1,20.08-32,166.94,166.94,0,0,1,29.9-27.6,179,179,0,0,1,36.5-20.42,167.37,167.37,0,0,1,41.17-11.11,156,156,0,0,1,41.52-.13,133.14,133.14,0,0,1,36.91,10.34,109.46,109.46,0,0,1,30.07,19.8,91.72,91.72,0,0,1,20.52,28.38A87.85,87.85,0,0,1,882.8,491c.75,3.13,5.57,1.81,4.82-1.33a92.83,92.83,0,0,0-15.36-33.3A104.29,104.29,0,0,0,845.37,431,126,126,0,0,0,810,415.19a151,151,0,0,0-41-5.36,167.8,167.8,0,0,0-43.61,6,177.41,177.41,0,0,0-40.13,16.65,182.93,182.93,0,0,0-34.58,25.23,153.72,153.72,0,0,0-26.12,31.42,109.93,109.93,0,0,0-14.39,34.74,81.42,81.42,0,0,0,.21,36,79.79,79.79,0,0,0,14.91,30.24,104.16,104.16,0,0,0,26,23.22,145.55,145.55,0,0,0,34.17,15.83A180.72,180.72,0,0,0,724.77,637a185.07,185.07,0,0,0,40.61-.88,161,161,0,0,0,40.7-10.72,151,151,0,0,0,35.62-20.91,138.24,138.24,0,0,0,26.87-28.26A120.2,120.2,0,0,0,885.26,543a102.68,102.68,0,0,0,4.83-35.83,97.78,97.78,0,0,0-2.47-17.53C886.89,486.5,882.07,487.83,882.8,491Z"/>
      <path class="cls-2 fillable" fill="#fff"
            d="M39.36,604.41l68.31-24a5.55,5.55,0,0,1,7.39,5.43l-2.49,72.31a5.55,5.55,0,0,1-3.83,5.09l-71,23.14a5.56,5.56,0,0,1-7.27-5.68l5.15-71.46A5.54,5.54,0,0,1,39.36,604.41Z"/>
      <path class="" fill="#0f0202"
            d="M40,606.82,65.2,598l37.33-13.12,4.68-1.64c1.35-.47,2.65-1,3.93-.15s1.44,2.29,1.39,3.76l-.16,4.73L111,630.9l-.65,18.92c-.1,2.76,0,5.58-.29,8.33-.16,1.66-1.31,2.47-2.74,2.93l-4,1.32-16,5.22L47.67,680.54c-3.38,1.1-6.76,2.22-10.15,3.3a5.48,5.48,0,0,1-1.1.31A3.09,3.09,0,0,1,33,681.06c0-.81.1-1.64.16-2.45l2.55-35.37,2.38-33c.1-1.4.43-2.79,1.93-3.37a2.58,2.58,0,0,0,1.75-3.07A2.52,2.52,0,0,0,38.69,602a8.48,8.48,0,0,0-5.57,7.8l-.31,4.25-1.26,17.52-3,41.54-.42,5.77a15.52,15.52,0,0,0,0,3.54,8.14,8.14,0,0,0,10.43,6.35c1-.3,2-.65,2.94-1l36-11.74,31.26-10.19c2.82-.92,5.16-2.72,6-5.7a15.32,15.32,0,0,0,.37-3.83l.5-14.34,1.47-42.89.43-12.44a8.57,8.57,0,0,0-2.59-7,8.32,8.32,0,0,0-8.54-1.49L75.32,589.13,40.69,601.3l-2,.7A2.56,2.56,0,0,0,37,605.07,2.52,2.52,0,0,0,40,606.82Z"/>
      <path class="cls-2 fillable" fill="#fff" d="M247.67,597.29s-81.52,57.42-33.53,150.48c0,0,35.62,61.07,117.77,48"/>
      <path class="" fill="#0f0202"
            d="M246.41,595.13a80.81,80.81,0,0,0-7.13,5.79,135.47,135.47,0,0,0-15.1,15.76,129.86,129.86,0,0,0-16.51,25.65,109.22,109.22,0,0,0-7.2,77.31,142.78,142.78,0,0,0,8.93,24.17,52.56,52.56,0,0,0,3.38,6.49,95.74,95.74,0,0,0,9.61,12.19A117,117,0,0,0,243,780.21a113.85,113.85,0,0,0,32.29,15.16,125.54,125.54,0,0,0,44.4,4.32c4.33-.32,8.64-.85,12.93-1.53a2.51,2.51,0,0,0,1.74-3.07,2.55,2.55,0,0,0-3.07-1.75,129,129,0,0,1-45.71-.58,109,109,0,0,1-33.73-12.86q-3.44-2-6.72-4.27-1.56-1.07-3.09-2.19l-1.34-1-.71-.54c.38.29-.39-.31-.52-.42a113.74,113.74,0,0,1-9.81-8.68c-2.5-2.49-4.9-5.09-7.16-7.81-.46-.56-.92-1.12-1.37-1.69l-.57-.73c-.35-.44,0,0,0,0l-.31-.41c-.66-.86-1.3-1.73-1.92-2.62s-1.35-1.91-1.93-2.92c-1.07-1.84-1.94-3.82-2.84-5.75-1.77-3.78-3.38-7.64-4.8-11.57a114.34,114.34,0,0,1-7.18-42.92,103.9,103.9,0,0,1,7.55-35.11c.9-2.24,2-4.75,3.24-7.23s2.4-4.68,3.71-7a128,128,0,0,1,8.16-12.44l1-1.36.51-.66c-.33.43.22-.29.31-.39.68-.88,1.38-1.75,2.09-2.6q2-2.43,4.1-4.76,3.6-4,7.48-7.65c1.9-1.8,3.85-3.54,5.86-5.2.68-.57,1.36-1.12,2.06-1.67l.2-.15c.35-.28-.26.1-.27.2,0-.06.3-.23.36-.27s.36-.28.55-.41l.43-.32a2.58,2.58,0,0,0,.9-3.42,2.52,2.52,0,0,0-3.42-.9Z"/>
      <path class="cls-2 fillable" fill="#fff"
            d="M427.88,685.24c6.54,64.71-44.6,110.51-99.6,110.51s-109-61.11-109-122.14,43.13-106.87,98.14-106.87S421.74,624.52,427.88,685.24Z"/>
      <path class="" fill="#0f0202"
            d="M425.38,685.24c2.18,22-2.36,44.17-14.27,62.89A98,98,0,0,1,365.39,786c-19.2,7.75-40.67,9.8-60.6,3.57-21.82-6.81-40.59-21.75-54.71-39.44-14.63-18.32-25-40.87-27.65-64.26A113.92,113.92,0,0,1,234.1,621a96.92,96.92,0,0,1,41.82-42c18.1-9.17,39.75-12.33,59.62-7.61,21.56,5.13,40.34,18.52,54.85,35a144.86,144.86,0,0,1,32.08,61.93,132,132,0,0,1,2.91,17,2.56,2.56,0,0,0,2.5,2.5,2.51,2.51,0,0,0,2.5-2.5,147.93,147.93,0,0,0-25.67-68.66c-13.23-19.08-31.1-35.69-52.62-44.9a88.92,88.92,0,0,0-32.71-7.41,96.37,96.37,0,0,0-31.72,4.55,99.23,99.23,0,0,0-49.72,36.44c-13.29,18.3-20.2,40.69-21.11,63.19-1,24.74,6.35,49.17,19.19,70.21,12.56,20.57,30.51,38.58,52.15,49.47a93.31,93.31,0,0,0,32.44,9.73,96.11,96.11,0,0,0,31.87-2.51A104.38,104.38,0,0,0,406,763.24,100.81,100.81,0,0,0,430.74,703a110.75,110.75,0,0,0-.36-17.75,2.58,2.58,0,0,0-2.5-2.5A2.51,2.51,0,0,0,425.38,685.24Z"/>
      <path class="cls-2 fillable" fill="#fff"
            d="M419.11,685C425,744.22,379,786.16,329.47,786.16s-98.15-55.95-98.15-111.83,38.83-97.86,88.34-97.86S413.59,629.38,419.11,685Z"/>
      <path class="" fill="#0f0202"
            d="M416.61,685c2,20-2.07,40.31-12.8,57.48a88.4,88.4,0,0,1-41,34.55c-17.18,7-36.41,8.94-54.27,3.29-19.65-6.21-36.46-19.87-49.09-35.9-13.25-16.82-22.55-37.52-25-58.89a105.6,105.6,0,0,1,10.42-59.16c8.28-16.27,21.19-30,37.43-38.39s35.67-11.35,53.54-7.05c19.49,4.69,36.35,17,49.34,32a133.28,133.28,0,0,1,28.87,56.85A120.86,120.86,0,0,1,416.61,685a2.57,2.57,0,0,0,2.5,2.5,2.51,2.51,0,0,0,2.5-2.5,137.09,137.09,0,0,0-23.1-62.93c-11.9-17.48-28.07-32.86-47.66-41.32a79.2,79.2,0,0,0-29.2-6.73,85.59,85.59,0,0,0-28.9,4.2,89.72,89.72,0,0,0-45,33.67c-11.93,16.83-18.07,37.29-18.87,57.81-.88,22.67,5.75,45.08,17.39,64.44,11.27,18.74,27.42,35.26,47,45.27a83.06,83.06,0,0,0,29.4,8.93A85.33,85.33,0,0,0,351.52,786,92.58,92.58,0,0,0,422,701a101.79,101.79,0,0,0-.34-16,2.56,2.56,0,0,0-2.5-2.5A2.51,2.51,0,0,0,416.61,685Z"/>
      <path class="cls-2 fillable" fill="#fff"
            d="M361,731.77H291a11.42,11.42,0,0,1-11.38-10.4l-7-78.22a11.42,11.42,0,0,1,11.37-12.43h67.7a11.42,11.42,0,0,1,11.34,10.07L372.38,719A11.41,11.41,0,0,1,361,731.77Z"/>
      <path class="" fill="#0f0202"
            d="M361,729.27H292.55a12.67,12.67,0,0,1-4.84-.62,9,9,0,0,1-5.58-7.49c-.37-3.51-.63-7-.95-10.56l-3.92-44.09-1.61-18.06c-.34-3.84-1.23-7.93,1-11.35a9.08,9.08,0,0,1,7.75-3.88h67.27a9,9,0,0,1,8.87,7.54c.46,2.71.66,5.5,1,8.23l5.13,43.25,2.3,19.35c.36,3,1.09,6.27.95,9.32a9,9,0,0,1-8.91,8.36c-3.21.05-3.22,5.05,0,5a14.1,14.1,0,0,0,13.42-10.21,16,16,0,0,0,.28-6.27l-1.65-13.86-5.44-45.8-1.81-15.26c-.15-1.25-.25-2.55-.51-3.78a14.05,14.05,0,0,0-12.87-10.85c-3.39-.21-6.84,0-10.23,0h-22c-12,0-23.92,0-35.87,0a14.1,14.1,0,0,0-14.19,15.3q.51,5.84,1,11.67l4.05,45.53,1.52,17.07c.11,1.14.2,2.29.31,3.44a14.21,14.21,0,0,0,7.17,11.31c4,2.21,8.75,1.73,13.19,1.73H361C364.26,734.27,364.26,729.27,361,729.27Z"/>
      <path class="" fill="#0f0202"
            d="M273.74,644.85h27.73c9.95,0,19.89-.1,29.84,0,5,0,8.52,3.72,9.09,8.53l1.28,10.75,4.63,39c1.07,9,2.12,18,3.21,27,0,.15,0,.3.05.45a2.58,2.58,0,0,0,2.5,2.5,2.51,2.51,0,0,0,2.5-2.5l-2.76-23.27L347,667.09l-1.5-12.6-.24-2.06a14.07,14.07,0,0,0-8.08-11.32c-3.73-1.65-7.88-1.26-11.86-1.26H273.74c-3.21,0-3.22,5,0,5Z"/>
    </g>
  </g>
</svg>
